<mxfile host="app.diagrams.net" modified="2023-09-09T21:28:46.872Z" agent="Mozilla/5.0 (Windows NT 10.0; Win64; x64) AppleWebKit/537.36 (KHTML, like Gecko) Chrome/114.0.0.0 Safari/537.36 OPR/100.0.0.0" version="21.7.2" etag="BLIMoRPCfhcGdYVi3Uls" type="github">
  <diagram name="Page-1" id="puif6D02_YQ-xSfoNBgj">
    <mxGraphModel>
      <root>
        <mxCell id="0" />
        <mxCell id="1" parent="0" />
      </root>
    </mxGraphModel>
  </diagram>
</mxfile>
